<?xml version="1.0" encoding="utf-8"?>
<!-- Generator: Adobe Illustrator 18.0.0, SVG Export Plug-In . SVG Version: 6.00 Build 0)  -->
<svg version="1.2" baseProfile="tiny" id="Layer_1" xmlns="http://www.w3.org/2000/svg" xmlns:xlink="http://www.w3.org/1999/xlink"
	 x="0px" y="0px" viewBox="0 0 500 500" xml:space="preserve">
<circle fill="#F44336" stroke="#fff" stroke-width="40" stroke-miterlimit="10" cx="249.8" cy="250.2" r="223.5"/>
<path fill="#FFFFFF" d="M250.3,327.1L250.3,327.1c-16.7,0-30.4-13.7-30.4-30.4V119.8c0-16.7,13.7-30.4,30.4-30.4h0c16.7,0,30.4,13.7,30.4,30.4
	v176.9C280.8,313.4,267.1,327.1,250.3,327.1z"/>
<path fill="#FFFFFF" d="M249.8,407L249.8,407c-17,0-31-13.9-31-31v0c0-17,13.9-31,31-31h0c17,0,31,13.9,31,31v0C280.8,393.1,266.8,407,249.8,407z"
	/>
</svg>
